<?xml version="1.0" encoding="utf-8"?>
<!-- Generator: Adobe Illustrator 23.0.1, SVG Export Plug-In . SVG Version: 6.00 Build 0)  -->
<svg version="1.1" id="圖層_1" xmlns="http://www.w3.org/2000/svg" xmlns:xlink="http://www.w3.org/1999/xlink" x="0px" y="0px"
	 viewBox="0 0 850.39 566.93" style="enable-background:new 0 0 850.39 566.93;" xml:space="preserve">
<style type="text/css">
	.st0{fill:#F7C5D7;stroke:#F7C5D7;stroke-width:1.5;stroke-miterlimit:10;stroke-dasharray:5,2;}
	.st1{fill:#ACDFFF;stroke:#ACDFFF;stroke-width:1.5;stroke-miterlimit:10;stroke-dasharray:5,2;}
	@keyframes aniDraw{
		to {stroke-dashoffset:0;}
	}
	.e{
		stroke-dasharray:300;
		stroke-dashoffset:300;
		animation:aniDraw 3s linear forwards;
	}
	.n{
		stroke-dasharray:300;
		stroke-dashoffset:300;
		animation:aniDraw 3.5s linear forwards;
	}
	.j{
		stroke-dasharray:300;
		stroke-dashoffset:300;
		animation:aniDraw 4s linear forwards;
	}
	.o{
		stroke-dasharray:300;
		stroke-dashoffset:300;
		animation:aniDraw 4.5s linear forwards;
	}
	.y{
		stroke-dasharray:300;
		stroke-dashoffset:300;
		animation:aniDraw 5s linear forwards;
	}
	.y1{
		stroke-dasharray:300;
		stroke-dashoffset:300;
		animation:aniDraw 5.5s linear forwards;
	}
	.o1{
		stroke-dasharray:300;
		stroke-dashoffset:300;
		animation:aniDraw 6s linear forwards;
	}
	.u{
		stroke-dasharray:300;
		stroke-dashoffset:300;
		animation:aniDraw 6.5s linear forwards;
	}
	.r{
		stroke-dasharray:300;
		stroke-dashoffset:300;
		animation:aniDraw 7s linear forwards;
	}
	.v{
		stroke-dasharray:300;
		stroke-dashoffset:300;
		animation:aniDraw 3s linear forwards;
	}
	.e1{
		stroke-dasharray:300;
		stroke-dashoffset:300;
		animation:aniDraw 3.5s linear forwards;
	}
	.n1{
		stroke-dasharray:300;
		stroke-dashoffset:300;
		animation:aniDraw 4s linear forwards;
	}
	.d{
		stroke-dasharray:300;
		stroke-dashoffset:300;
		animation:aniDraw 4.5s linear forwards;
	}
	.i{
		stroke-dasharray:300;
		stroke-dashoffset:300;
		animation:aniDraw 5s linear forwards;
	}
	.n2{
		stroke-dasharray:300;
		stroke-dashoffset:300;
		animation:aniDraw 5.5s linear forwards;
	}
	.g{
		stroke-dasharray:300;
		stroke-dashoffset:300;
		animation:aniDraw 6s linear forwards;
	}
	.l{
		stroke-dasharray:300;
		stroke-dashoffset:300;
		animation:aniDraw 6.5s linear forwards;
	}
	.i1{
		stroke-dasharray:300;
		stroke-dashoffset:300;
		animation:aniDraw 7s linear forwards;
	}
	.f{
		stroke-dasharray:300;
		stroke-dashoffset:300;
		animation:aniDraw 7.5s linear forwards;
	}
	.e2{
		stroke-dasharray:300;
		stroke-dashoffset:300;
		animation:aniDraw 8s linear forwards;
	}

</style>
<g>
	<path class="st0 e" d="M293.91,226.33l1.45,1.93c-7.18,6.83-13.33,10.24-18.46,10.24c-2.08,0-3.67-0.7-4.77-2.11
		s-1.65-3.66-1.65-6.77c0-6.27,1.9-12.51,5.71-18.72c4.28-7.06,9.39-10.59,15.34-10.59c2.08,0,3.67,0.52,4.77,1.56
		c1.1,1.04,1.65,2.47,1.65,4.28c0,1.9-0.66,3.78-1.98,5.63s-3.68,3.76-7.08,5.76c-1.7,0.97-5.33,2.71-10.9,5.23
		c-0.26,1.58-0.4,3.09-0.4,4.53c0,2.08,0.33,3.53,0.99,4.35c0.66,0.82,1.62,1.23,2.88,1.23c1.2,0,2.52-0.34,3.96-1.01
		C287.36,230.96,290.19,229.11,293.91,226.33z M278.53,219.96c4.72-2.11,8.26-4.38,10.63-6.81c1.61-1.7,2.42-3.38,2.42-5.05
		c0-1.26-0.33-2.26-0.99-3.01s-1.52-1.12-2.57-1.12c-1.08,0-2.14,0.41-3.16,1.23c-1.38,1.08-2.53,2.72-3.47,4.92
		C280.04,213.34,279.09,216.62,278.53,219.96z"/>
	<path class="st0 n" d="M302.79,210.73l-1.49-1.54c3.75-3.59,6.74-5.98,8.97-7.15c2.23-1.18,4.13-1.77,5.72-1.77
		c0.62,0,1.1,0.13,1.45,0.4s0.53,0.57,0.53,0.92c0,0.26-0.07,0.73-0.22,1.41l-1.98,8.84c2.98-3.31,6.73-6.41,11.23-9.28
		c2.4-1.5,4.37-2.24,5.92-2.24c1.14,0,2.03,0.37,2.68,1.1c0.64,0.73,0.97,1.79,0.97,3.16c0,0.91-0.13,1.93-0.39,3.08
		c-0.47,1.9-1.69,6.05-3.68,12.44c-1.87,5.98-2.8,9.95-2.8,11.91c0,0.6,0.09,1.05,0.26,1.35s0.42,0.45,0.75,0.45
		c0.85,0,2.18-0.82,4-2.46c1.29-1.17,2.58-2.26,3.87-3.25l1.1,1.58c-2.7,2.97-5.49,5.36-8.39,7.17c-1.85,1.17-3.37,1.75-4.57,1.75
		c-1.11,0-1.98-0.4-2.59-1.21s-0.92-2.12-0.92-3.93c0-2.61,1.63-9.1,4.88-19.47c1-3.69,1.49-5.84,1.49-6.46
		c0-0.91-0.54-1.36-1.63-1.36c-1.17,0-2.68,0.62-4.53,1.85c-2.75,1.82-5.05,3.96-6.9,6.42c-1.17,1.58-2.15,4.11-2.94,7.57
		l-3.56,15.36h-6.55c1.23-4.4,2.3-8.61,3.21-12.63l3.91-16.72c0.15-0.67,0.22-1.16,0.22-1.45c0-0.79-0.29-1.19-0.88-1.19
		c-0.47,0-1.14,0.31-2.02,0.93C306.07,207.51,304.37,208.99,302.79,210.73z"/>
	<path class="st0 j" d="M344.58,210.99l-1.67-1.89c2.49-2.71,5.17-4.87,8.05-6.49c2.88-1.62,5.1-2.43,6.65-2.43
		c0.64,0,1.18,0.2,1.6,0.59s0.64,0.9,0.64,1.52c0,0.76-0.47,2.84-1.4,6.24l-7.58,27.73c-2.55,9.43-5.36,15.81-8.44,19.14
		c-3.08,3.32-6.68,4.99-10.81,4.99c-2.05,0-3.63-0.39-4.72-1.16c-1.1-0.78-1.65-1.66-1.65-2.66c0-0.7,0.26-1.3,0.77-1.8
		c0.51-0.5,1.14-0.75,1.87-0.75c0.82,0,1.99,0.38,3.52,1.14c1.76,0.88,3.11,1.32,4.04,1.32c1.58,0,2.86-0.73,3.82-2.2
		c0.97-1.44,2.42-6.06,4.35-13.89c1.99-8,3.68-14.5,5.05-19.51l3.08-11.07c0.59-1.79,0.88-2.9,0.88-3.34c0-0.23-0.1-0.44-0.29-0.62
		c-0.19-0.18-0.39-0.26-0.59-0.26C350.6,205.59,348.21,207.39,344.58,210.99z M362.07,181.51c0.91,0,1.65,0.3,2.24,0.9
		c0.59,0.6,0.88,1.37,0.88,2.31c0,1.29-0.45,2.42-1.34,3.41c-0.89,0.98-1.88,1.47-2.97,1.47c-0.91,0-1.66-0.31-2.24-0.92
		c-0.59-0.62-0.88-1.42-0.88-2.42c0-1.32,0.43-2.44,1.3-3.36C359.92,181.97,360.93,181.51,362.07,181.51z"/>
	<path class="st0 o" d="M384.48,200.4c2.87,0,5.26,1.14,7.16,3.43c1.9,2.29,2.86,5.46,2.86,9.54c0,6.5-2.29,12.34-6.86,17.51
		c-4.57,5.17-9.4,7.76-14.5,7.76c-3.14,0-5.66-1.03-7.58-3.08c-1.92-2.05-2.88-4.85-2.88-8.39c0-6.15,1.76-11.84,5.27-17.05
		C372.38,203.64,377.89,200.4,384.48,200.4z M380.75,203.7c-2.49,0-4.9,1.78-7.23,5.34s-3.49,8.47-3.49,14.74
		c0,3.81,0.72,6.81,2.15,9.01c1.05,1.61,2.46,2.42,4.22,2.42c2.46,0,4.7-1.52,6.72-4.57c2.58-3.96,3.87-8.86,3.87-14.72
		c0-4.39-0.59-7.53-1.78-9.4C384.02,204.64,382.53,203.7,380.75,203.7z"/>
	<path class="st0 y" d="M398.54,209.37l-1.41-2.07l3.25-2.2c3.16-2.17,5.39-3.56,6.68-4.17c0.73-0.35,1.41-0.53,2.02-0.53
		s1.2,0.35,1.76,1.05c2.58,3.25,4.75,7.63,6.5,13.15c1.76,5.52,2.64,10.87,2.64,16.05c0,0.67-0.03,1.7-0.09,3.07
		c4.95-9.12,7.43-16.36,7.43-21.72c0-1.11-0.25-2.59-0.75-4.44c-0.53-2.05-0.79-3.52-0.79-4.4c0-0.85,0.27-1.55,0.81-2.11
		c0.54-0.56,1.22-0.84,2.04-0.84c1.03,0,1.85,0.4,2.48,1.19s0.95,1.92,0.95,3.38c0,3.78-0.86,8.49-2.59,14.13
		c-1.73,5.64-4.45,11.7-8.15,18.19c-3.71,6.49-7.09,11.31-10.15,14.46c-3.06,3.15-6.02,5.41-8.88,6.77s-5.56,2.04-8.11,2.04
		c-1.93,0-3.39-0.36-4.37-1.08c-0.98-0.72-1.47-1.58-1.47-2.57c0-0.88,0.38-1.63,1.14-2.26c0.76-0.63,1.79-0.94,3.08-0.94
		c1,0,2.36,0.19,4.09,0.57c1.85,0.41,3.1,0.62,3.78,0.62c1.79,0,3.68-0.75,5.67-2.24c2.72-2.05,4.88-4.49,6.48-7.33
		c1.6-2.84,2.4-5.71,2.4-8.61c0-4.07-0.59-8.96-1.78-14.66s-2.86-10.07-5.03-13.08c-1.08-1.55-2.24-2.33-3.47-2.33
		C403.26,206.47,401.21,207.43,398.54,209.37z"/>
	<path class="st0 y1" d="M454.31,209.37l-1.41-2.07l3.25-2.2c3.16-2.17,5.39-3.56,6.68-4.17c0.73-0.35,1.41-0.53,2.02-0.53
		s1.2,0.35,1.76,1.05c2.58,3.25,4.75,7.63,6.5,13.15c1.76,5.52,2.64,10.87,2.64,16.05c0,0.67-0.03,1.7-0.09,3.07
		c4.95-9.12,7.43-16.36,7.43-21.72c0-1.11-0.25-2.59-0.75-4.44c-0.53-2.05-0.79-3.52-0.79-4.4c0-0.85,0.27-1.55,0.81-2.11
		c0.54-0.56,1.22-0.84,2.04-0.84c1.03,0,1.85,0.4,2.48,1.19s0.95,1.92,0.95,3.38c0,3.78-0.86,8.49-2.59,14.13
		c-1.73,5.64-4.45,11.7-8.15,18.19c-3.71,6.49-7.09,11.31-10.15,14.46c-3.06,3.15-6.02,5.41-8.88,6.77
		c-2.86,1.36-5.56,2.04-8.11,2.04c-1.93,0-3.39-0.36-4.37-1.08c-0.98-0.72-1.47-1.58-1.47-2.57c0-0.88,0.38-1.63,1.14-2.26
		c0.76-0.63,1.79-0.94,3.08-0.94c1,0,2.36,0.19,4.09,0.57c1.85,0.41,3.11,0.62,3.78,0.62c1.79,0,3.68-0.75,5.67-2.24
		c2.72-2.05,4.88-4.49,6.48-7.33c1.6-2.84,2.4-5.71,2.4-8.61c0-4.07-0.59-8.96-1.78-14.66c-1.19-5.71-2.86-10.07-5.03-13.08
		c-1.08-1.55-2.24-2.33-3.47-2.33C459.03,206.47,456.98,207.43,454.31,209.37z"/>
	<path class="st0 o1" d="M512.23,200.4c2.87,0,5.26,1.14,7.16,3.43s2.86,5.46,2.86,9.54c0,6.5-2.29,12.34-6.86,17.51
		c-4.57,5.17-9.4,7.76-14.5,7.76c-3.13,0-5.66-1.03-7.58-3.08c-1.92-2.05-2.88-4.85-2.88-8.39c0-6.15,1.76-11.84,5.27-17.05
		C500.13,203.64,505.64,200.4,512.23,200.4z M508.5,203.7c-2.49,0-4.9,1.78-7.23,5.34c-2.33,3.56-3.49,8.47-3.49,14.74
		c0,3.81,0.72,6.81,2.15,9.01c1.05,1.61,2.46,2.42,4.22,2.42c2.46,0,4.7-1.52,6.72-4.57c2.58-3.96,3.87-8.86,3.87-14.72
		c0-4.39-0.59-7.53-1.78-9.4C511.77,204.64,510.28,203.7,508.5,203.7z"/>
	<path class="st0 u" d="M556.11,201.54h6.26l-4.13,15.36c-2.43,8.92-3.65,14-3.65,15.23c0,0.56,0.13,0.98,0.4,1.27
		c0.26,0.29,0.56,0.44,0.88,0.44c0.5,0,1.08-0.22,1.76-0.66c0.97-0.67,2.8-2.37,5.49-5.1l1.45,1.63
		c-5.89,6.12-10.22,9.18-13.01,9.18c-0.94,0-1.74-0.36-2.39-1.08c-0.66-0.72-0.99-1.74-0.99-3.05c0-1.52,0.32-3.56,0.95-6.11
		c-2.61,2.99-5.83,5.61-9.66,7.87c-2.55,1.49-4.76,2.24-6.63,2.24c-1.02,0-1.83-0.34-2.42-1.01s-0.88-1.75-0.88-3.21
		c0-1.14,0.13-2.38,0.4-3.7c0.38-1.85,1.35-5.56,2.9-11.13c1.96-7.07,2.94-11.31,2.94-12.72c0-0.82-0.29-1.23-0.88-1.23
		c-0.53,0-1.25,0.27-2.15,0.81c-0.91,0.54-2.46,1.85-4.66,3.93l-1.93-1.54c3.93-3.52,6.92-5.82,8.99-6.92
		c2.07-1.1,3.73-1.65,4.99-1.65c0.7,0,1.27,0.26,1.71,0.77s0.66,1.31,0.66,2.4c0,2.02-1.05,7-3.16,14.92
		c-1.88,7.13-2.81,11.19-2.81,12.19c0,0.62,0.2,1.14,0.59,1.58c0.39,0.44,0.83,0.66,1.3,0.66c1.64,0,3.96-1.35,6.98-4.06
		c3.01-2.71,4.99-5.79,5.93-9.25L556.11,201.54z"/>
	<path class="st0 r" d="M575.95,237.36h-6.55l3.08-11.82c1.49-5.8,2.8-11.31,3.91-16.52c0.26-1.29,0.4-2.09,0.4-2.42
		c0-0.7-0.32-1.05-0.97-1.05c-0.44,0-1.11,0.3-2.02,0.9c-0.91,0.6-2.55,2.09-4.92,4.46l-1.36-1.54c2.81-3.02,5.62-5.28,8.41-6.79
		c2.8-1.51,4.94-2.26,6.44-2.26c0.53,0,0.94,0.13,1.25,0.37c0.31,0.25,0.46,0.56,0.46,0.94c0,0.38-0.19,1.4-0.58,3.05l-1.91,7.91
		c2.96-4.68,6.31-8.68,10.04-12c1.79-1.59,3.29-2.38,4.49-2.38c0.88,0,1.61,0.29,2.2,0.86s0.88,1.24,0.88,2
		c0,0.79-0.29,1.47-0.86,2.02c-0.57,0.56-2,1.22-4.28,1.98c-2.17,0.73-3.93,1.61-5.29,2.64s-2.85,2.59-4.48,4.7
		c-1.62,2.11-2.76,3.95-3.41,5.52c-0.65,1.57-1.63,5.21-2.95,10.92L575.95,237.36z"/>
	<path class="st1 v" d="M266.88,306.58c-2.26,3.6-3.82,6.78-4.68,9.54c-0.86,2.75-1.3,5.49-1.3,8.22c0,2.52,0.56,6.46,1.67,11.82
		c6.47-4.92,11.06-9.53,13.75-13.82c2.7-4.29,4.04-7.99,4.04-11.1c0-0.91-0.34-2.05-1.01-3.43c-0.73-1.46-1.1-2.55-1.1-3.25
		c0-0.76,0.26-1.43,0.79-2c0.53-0.57,1.16-0.86,1.89-0.86c0.97,0,1.74,0.42,2.33,1.25c0.59,0.83,0.88,2.25,0.88,4.24
		c0,6.24-2.21,12.32-6.64,18.24c-5.42,7.27-12.29,12.86-20.61,16.79c-0.21-1.38-0.62-3.57-1.23-6.59c-1.2-6.06-1.8-10.28-1.8-12.66
		c0-3.13,0.73-6.17,2.2-9.12c1.46-2.95,3.63-5.5,6.5-7.67c-5.16,0.09-8.85,0.66-11.07,1.71c-1.58,0.76-2.37,1.66-2.37,2.68
		c0,0.41,0.2,1.1,0.62,2.07c0.26,0.67,0.4,1.25,0.4,1.71s-0.2,0.89-0.59,1.25s-0.89,0.55-1.47,0.55c-0.76,0-1.41-0.32-1.93-0.97
		s-0.79-1.51-0.79-2.59c0-1.73,0.57-3.29,1.71-4.68c1.14-1.39,3.12-2.48,5.93-3.27s6.53-1.16,11.16-1.1
		c1.87-0.82,3.06-1.23,3.56-1.23c0.47,0,0.89,0.19,1.27,0.57c0.38,0.38,0.57,0.79,0.57,1.23
		C269.56,305.02,268.67,305.84,266.88,306.58z"/>
	<path class="st1 e1" d="M309.25,328.33l1.45,1.93c-7.18,6.83-13.33,10.24-18.46,10.24c-2.08,0-3.67-0.7-4.77-2.11
		s-1.65-3.66-1.65-6.77c0-6.27,1.9-12.51,5.71-18.72c4.28-7.06,9.39-10.59,15.34-10.59c2.08,0,3.67,0.52,4.77,1.56
		c1.1,1.04,1.65,2.47,1.65,4.29c0,1.9-0.66,3.78-1.98,5.63s-3.68,3.76-7.08,5.76c-1.7,0.97-5.33,2.71-10.9,5.23
		c-0.26,1.58-0.4,3.09-0.4,4.53c0,2.08,0.33,3.53,0.99,4.35s1.62,1.23,2.88,1.23c1.2,0,2.52-0.34,3.96-1.01
		C302.7,332.96,305.53,331.11,309.25,328.33z M293.87,321.96c4.72-2.11,8.26-4.38,10.63-6.81c1.61-1.7,2.42-3.38,2.42-5.05
		c0-1.26-0.33-2.26-0.99-3.01c-0.66-0.75-1.52-1.12-2.57-1.12c-1.08,0-2.14,0.41-3.16,1.23c-1.38,1.08-2.53,2.72-3.47,4.92
		C295.38,315.34,294.42,318.62,293.87,321.96z"/>
	<path class="st1 n1" d="M318.12,312.73l-1.49-1.54c3.75-3.59,6.74-5.98,8.97-7.15s4.13-1.77,5.72-1.77c0.62,0,1.1,0.13,1.45,0.4
		s0.53,0.57,0.53,0.92c0,0.26-0.07,0.73-0.22,1.41l-1.98,8.84c2.98-3.31,6.73-6.41,11.23-9.28c2.4-1.5,4.37-2.24,5.92-2.24
		c1.14,0,2.03,0.37,2.68,1.1c0.64,0.73,0.97,1.79,0.97,3.16c0,0.91-0.13,1.93-0.39,3.08c-0.47,1.9-1.69,6.05-3.68,12.44
		c-1.87,5.98-2.8,9.95-2.8,11.91c0,0.6,0.09,1.05,0.26,1.35s0.42,0.45,0.75,0.45c0.85,0,2.18-0.82,4-2.46
		c1.29-1.17,2.58-2.26,3.87-3.25l1.1,1.58c-2.7,2.97-5.49,5.37-8.39,7.17c-1.85,1.17-3.37,1.75-4.57,1.75
		c-1.11,0-1.98-0.4-2.59-1.21c-0.62-0.8-0.92-2.12-0.92-3.93c0-2.61,1.63-9.1,4.88-19.47c1-3.69,1.49-5.84,1.49-6.46
		c0-0.91-0.54-1.36-1.63-1.36c-1.17,0-2.68,0.62-4.53,1.85c-2.75,1.82-5.05,3.96-6.9,6.42c-1.17,1.58-2.15,4.11-2.94,7.57
		l-3.56,15.36h-6.55c1.23-4.4,2.3-8.61,3.21-12.63l3.91-16.72c0.15-0.67,0.22-1.16,0.22-1.45c0-0.79-0.29-1.19-0.88-1.19
		c-0.47,0-1.14,0.31-2.02,0.93C321.4,309.51,319.71,310.99,318.12,312.73z"/>
	<path class="st1 d" d="M392.04,330.26l1.23,1.67c-3.93,3.31-6.84,5.51-8.75,6.59c-2.64,1.49-4.72,2.24-6.24,2.24
		c-0.7,0-1.27-0.2-1.71-0.59c-0.44-0.39-0.66-0.84-0.66-1.34s0.16-1.32,0.48-2.46l1.54-5.37c-3.52,3.78-6.45,6.35-8.79,7.7
		c-2.34,1.35-4.45,2.02-6.33,2.02c-1.55,0-2.86-0.68-3.91-2.05s-1.58-3.37-1.58-6c0-4.17,1.43-8.95,4.28-14.37
		c2.86-5.41,6.04-9.42,9.54-12.01c3.5-2.59,6.7-3.89,9.6-3.89c0.64,0,1.61,0.1,2.9,0.31c1.38-5.7,2.7-9.86,3.96-12.48
		c1.26-2.62,2.89-4.88,4.88-6.78c1.99-1.9,4.27-3.37,6.83-4.41c2.56-1.04,4.96-1.56,7.19-1.56c1.17,0,2.11,0.31,2.81,0.92
		s1.05,1.39,1.05,2.33c0,0.91-0.32,1.65-0.97,2.22c-0.65,0.57-1.53,0.86-2.64,0.86c-0.73,0-2.1-0.15-4.1-0.44
		c-2-0.29-3.36-0.44-4.1-0.44c-1.03,0-1.93,0.31-2.71,0.94c-0.78,0.63-1.52,1.98-2.23,4.06c-0.47,1.32-1.53,5.52-3.2,12.61
		l-6.22,26.55c-0.73,3.14-1.09,5.22-1.09,6.24c0,1.12,0.42,1.67,1.27,1.67c0.53,0,1.14-0.19,1.85-0.57
		C387.23,333.88,389.17,332.49,392.04,330.26z M382.72,307.54c-2.34-0.53-4-0.79-4.97-0.79c-1.96,0-3.88,0.77-5.76,2.31
		c-1.88,1.54-3.68,4.53-5.43,8.96c-1.74,4.43-2.61,8.29-2.61,11.58c0,1.5,0.4,2.72,1.21,3.67c0.81,0.95,1.72,1.43,2.75,1.43
		c1.23,0,2.64-0.54,4.22-1.63c2.26-1.61,4.04-3.58,5.36-5.9c0.79-1.47,1.86-5.06,3.21-10.78L382.72,307.54z"/>
	<path class="st1 i" d="M399.2,312.6l-1.93-1.49c2.93-3.22,5.6-5.51,8.01-6.88c2.41-1.36,4.47-2.04,6.17-2.04
		c0.94,0,1.65,0.21,2.15,0.62s0.75,0.97,0.75,1.67c0,0.85-0.95,4.45-2.85,10.81c-3.1,10.4-4.65,16.67-4.65,18.81
		c0,0.41,0.1,0.75,0.31,1.03c0.2,0.28,0.42,0.42,0.66,0.42c0.94,0,3.34-1.82,7.21-5.45l1.71,1.67c-4.01,3.78-6.94,6.2-8.79,7.25
		s-3.35,1.58-4.53,1.58c-1.03,0-1.84-0.32-2.44-0.97c-0.6-0.64-0.9-1.54-0.9-2.68c0-3.66,2.2-12.61,6.59-26.85
		c0.2-0.67,0.31-1.27,0.31-1.8c0-0.59-0.26-0.88-0.79-0.88c-0.59,0-1.25,0.23-2,0.7S401.78,310.08,399.2,312.6z M416.47,283.51
		c0.91,0,1.65,0.3,2.24,0.9c0.59,0.6,0.88,1.37,0.88,2.31c0,1.29-0.45,2.42-1.34,3.41c-0.89,0.98-1.9,1.47-3.01,1.47
		c-0.88,0-1.61-0.31-2.2-0.92c-0.59-0.62-0.88-1.42-0.88-2.42c0-1.32,0.42-2.44,1.27-3.36C414.29,283.97,415.3,283.51,416.47,283.51
		z"/>
	<path class="st1 n2" d="M420.69,312.73l-1.49-1.54c3.75-3.59,6.74-5.98,8.97-7.15c2.23-1.18,4.13-1.77,5.72-1.77
		c0.62,0,1.1,0.13,1.45,0.4s0.53,0.57,0.53,0.92c0,0.26-0.07,0.73-0.22,1.41l-1.98,8.84c2.98-3.31,6.73-6.41,11.23-9.28
		c2.4-1.5,4.37-2.24,5.92-2.24c1.14,0,2.03,0.37,2.68,1.1s0.97,1.79,0.97,3.16c0,0.91-0.13,1.93-0.39,3.08
		c-0.47,1.9-1.69,6.05-3.68,12.44c-1.87,5.98-2.8,9.95-2.8,11.91c0,0.6,0.09,1.05,0.26,1.35s0.42,0.45,0.75,0.45
		c0.85,0,2.18-0.82,4-2.46c1.29-1.17,2.58-2.26,3.87-3.25l1.1,1.58c-2.7,2.97-5.49,5.37-8.39,7.17c-1.85,1.17-3.37,1.75-4.57,1.75
		c-1.11,0-1.98-0.4-2.59-1.21c-0.62-0.8-0.92-2.12-0.92-3.93c0-2.61,1.63-9.1,4.88-19.47c1-3.69,1.49-5.84,1.49-6.46
		c0-0.91-0.54-1.36-1.63-1.36c-1.17,0-2.68,0.62-4.53,1.85c-2.75,1.82-5.05,3.96-6.9,6.42c-1.17,1.58-2.15,4.11-2.94,7.57
		l-3.56,15.36h-6.55c1.23-4.4,2.3-8.61,3.21-12.63l3.91-16.72c0.15-0.67,0.22-1.16,0.22-1.45c0-0.79-0.29-1.19-0.88-1.19
		c-0.47,0-1.14,0.31-2.02,0.93C423.97,309.51,422.27,310.99,420.69,312.73z"/>
	<path class="st1 g" d="M490.36,302.09l3.53-0.79c-2.13,6.86-4.09,13.73-5.87,20.61c-1.29,4.92-2.18,9.02-2.67,12.3
		c-0.26,1.64-0.41,3.72-0.44,6.24c-0.06,4.22-0.53,7.62-1.41,10.2c-1.23,3.6-3.52,6.5-6.88,8.7s-7.33,3.3-11.94,3.3
		c-3.96,0-7.07-0.93-9.34-2.79s-3.41-3.99-3.41-6.39c0-2.37,0.91-4.58,2.73-6.64c1.35-1.55,4.17-3.43,8.46-5.63
		c2.17-1.14,4.21-2.31,6.12-3.52c-2.18,1.11-3.87,1.67-5.08,1.67c-1.09,0-2.05-0.51-2.89-1.52c-0.84-1.01-1.26-2.35-1.26-4.02
		c0-5.39,1.6-10.74,4.81-16.06c3.21-5.32,7.07-9.31,11.58-11.97c2.79-1.64,6.27-2.46,10.46-2.46c0.82,0,1.83,0.03,3.03,0.09
		L490.36,302.09z M479.49,332.55c-2,1.79-5.84,4.64-11.54,8.57c-5.02,3.4-8.1,5.84-9.25,7.34c-1.15,1.52-1.72,3.13-1.72,4.83
		c0,1.67,0.74,3.17,2.22,4.5c1.48,1.33,3.28,2,5.39,2c2,0,3.93-0.49,5.81-1.47c1.88-0.98,3.52-2.4,4.91-4.26
		c1.39-1.86,2.35-3.96,2.88-6.31c0.53-2.34,0.81-5.45,0.84-9.32C479.08,337.59,479.23,335.63,479.49,332.55z M485.45,308.6
		c-1.4-0.26-2.65-0.4-3.73-0.4c-2.78,0-5.17,0.73-7.16,2.2c-1.99,1.46-3.69,3.93-5.09,7.38c-1.96,4.89-2.94,9.01-2.94,12.35
		c0,1.38,0.39,2.53,1.16,3.47c0.78,0.94,1.65,1.41,2.61,1.41c1.17,0,2.62-0.56,4.35-1.69c1.73-1.13,3.14-2.54,4.24-4.24
		c1.1-1.7,2.22-4.63,3.36-8.79L485.45,308.6z"/>
	<path class="st1 l" d="M534.82,328.77l1.49,1.58c-2.29,2.58-4.99,4.93-8.11,7.05c-3.12,2.12-5.69,3.19-7.71,3.19
		c-0.91,0-1.66-0.34-2.24-1.03c-0.59-0.69-0.88-1.63-0.88-2.83c0-2.34,0.91-7.21,2.72-14.59l4.74-19.29
		c1.73-6.97,3.17-11.65,4.35-14.02c1.81-3.59,4.38-6.38,7.7-8.36c3.32-1.98,6.83-2.98,10.51-2.98c1.26,0,2.25,0.3,2.96,0.91
		c0.72,0.6,1.08,1.33,1.08,2.19c0,0.94-0.35,1.72-1.05,2.32c-0.7,0.6-1.72,0.91-3.07,0.91c-0.88,0-2.12-0.15-3.72-0.44
		c-1.4-0.23-2.7-0.35-3.9-0.35c-1.2,0-2.1,0.25-2.71,0.74c-0.85,0.7-1.61,2.17-2.3,4.42c-0.69,2.25-1.8,6.68-3.35,13.3l-4.38,18.41
		c-2.17,9.23-3.25,14.05-3.25,14.46c0,0.94,0.34,1.41,1.01,1.41c0.64,0,1.58-0.38,2.81-1.14
		C529.95,333.09,532.38,331.14,534.82,328.77z"/>
	<path class="st1 i1" d="M539.52,312.6l-1.93-1.49c2.93-3.22,5.6-5.51,8.01-6.88c2.41-1.36,4.47-2.04,6.17-2.04
		c0.94,0,1.65,0.21,2.15,0.62s0.75,0.97,0.75,1.67c0,0.85-0.95,4.45-2.85,10.81c-3.1,10.4-4.65,16.67-4.65,18.81
		c0,0.41,0.1,0.75,0.31,1.03s0.42,0.42,0.66,0.42c0.94,0,3.34-1.82,7.21-5.45l1.71,1.67c-4.01,3.78-6.94,6.2-8.79,7.25
		s-3.35,1.58-4.53,1.58c-1.03,0-1.84-0.32-2.44-0.97s-0.9-1.54-0.9-2.68c0-3.66,2.2-12.61,6.59-26.85c0.21-0.67,0.31-1.27,0.31-1.8
		c0-0.59-0.26-0.88-0.79-0.88c-0.59,0-1.25,0.23-2,0.7C543.76,308.58,542.1,310.08,539.52,312.6z M556.79,283.51
		c0.91,0,1.66,0.3,2.24,0.9s0.88,1.37,0.88,2.31c0,1.29-0.45,2.42-1.34,3.41c-0.89,0.98-1.9,1.47-3.01,1.47
		c-0.88,0-1.61-0.31-2.2-0.92s-0.88-1.42-0.88-2.42c0-1.32,0.42-2.44,1.27-3.36C554.61,283.97,555.62,283.51,556.79,283.51z"/>
	<path class="st1 f" d="M561.19,305.26h10.5c1.73-7.32,3.71-12.77,5.93-16.35s5.13-6.39,8.7-8.46s6.94-3.1,10.11-3.1
		c1.79,0,3.13,0.35,4.04,1.05s1.36,1.54,1.36,2.5c0,0.88-0.31,1.61-0.92,2.2c-0.62,0.59-1.42,0.88-2.42,0.88
		c-1.03,0-2.96-0.31-5.81-0.92c-1.41-0.29-2.51-0.44-3.3-0.44c-1.94,0-3.68,1.19-5.24,3.58c-1.56,2.39-2.8,5.62-3.74,9.69
		l-2.21,9.36h11.64l-0.7,3.12h-11.8l-6.88,28.04c-2.14,8.53-5.56,14.99-10.26,19.38c-4.7,4.39-9.81,6.59-15.32,6.59
		c-1.85,0-3.24-0.36-4.2-1.08c-0.95-0.72-1.43-1.6-1.43-2.66c0-0.91,0.33-1.63,0.99-2.17c0.66-0.54,1.6-0.81,2.83-0.81
		c0.62,0,1.52,0.07,2.72,0.22c2.05,0.26,4.01,0.4,5.89,0.4c2.9,0,5.01-0.68,6.33-2.04c1.32-1.36,2.64-4.69,3.96-10l8.92-35.86h-10.5
		L561.19,305.26z"/>
	<path class="st1 e2" d="M611.5,328.33l1.45,1.93c-7.18,6.83-13.33,10.24-18.46,10.24c-2.08,0-3.67-0.7-4.77-2.11
		c-1.1-1.41-1.65-3.66-1.65-6.77c0-6.27,1.9-12.51,5.71-18.72c4.28-7.06,9.39-10.59,15.34-10.59c2.08,0,3.67,0.52,4.77,1.56
		c1.1,1.04,1.65,2.47,1.65,4.29c0,1.9-0.66,3.78-1.98,5.63s-3.68,3.76-7.08,5.76c-1.7,0.97-5.33,2.71-10.9,5.23
		c-0.26,1.58-0.4,3.09-0.4,4.53c0,2.08,0.33,3.53,0.99,4.35c0.66,0.82,1.62,1.23,2.88,1.23c1.2,0,2.52-0.34,3.96-1.01
		C604.96,332.96,607.78,331.11,611.5,328.33z M596.12,321.96c4.72-2.11,8.26-4.38,10.63-6.81c1.61-1.7,2.42-3.38,2.42-5.05
		c0-1.26-0.33-2.26-0.99-3.01c-0.66-0.75-1.52-1.12-2.57-1.12c-1.08,0-2.14,0.41-3.16,1.23c-1.38,1.08-2.53,2.72-3.47,4.92
		C597.63,315.34,596.68,318.62,596.12,321.96z"/>
</g>
</svg>
